<svg xmlns="http://www.w3.org/2000/svg" xmlns:xlink="http://www.w3.org/1999/xlink" version="1.1" width="2815.2188951920375" height="3169.336474898769" viewBox="0 0 2815.2188951920375 3169.336474898769">
			
			<g transform="scale(8.46682374493846) translate(10, 10)">
				<defs id="SvgjsDefs4130"/><g id="SvgjsG4131" featureKey="rootContainer" transform="matrix(6.3004014813942035,0,0,6.3004014813942035,0.0000463792746660998,0.02629461114787117)" fill="#000"><path xmlns="http://www.w3.org/2000/svg" d="M23.11 55.78L1.69 43.41A3.39 3.39 0 0 1 0 40.48V15.75a3.39 3.39 0 0 1 1.69-2.94L23.11.45a3.39 3.39 0 0 1 3.39 0l21.41 12.37a3.39 3.39 0 0 1 1.69 2.94v24.72a3.39 3.39 0 0 1-1.69 2.94L26.5 55.78a3.39 3.39 0 0 1-3.39 0z"/></g><g id="SvgjsG4133" featureKey="nameFeature-0" transform="matrix(1.3182644273175383,0,0,1.3182644273175383,52.23437746724505,184.9344775148173)" fill="#ffffff"><path d="M2.8571 40 l0 -28.571 l20.857 0 l4.2857 4.2857 l0 12 l-4.2857 4.2857 l-13.429 0 l0 8 l-7.4286 0 z M10.286 25.714 l10.286 0 l0 -8 l-10.286 0 l0 8 z M34.57138571428572 40 l0 -24.286 l4.2857 -4.2857 l16.571 0 l4.2857 4.2857 l0 24.286 l-7.4286 0 l0 -8 l-10.286 0 l0 8 l-7.4286 0 z M42.00028571428572 25.714 l10.286 0 l0 -8 l-10.286 0 l0 8 z M83.99957142857143 11.428999999999998 l7.4286 0 l0 28.571 l-6.5714 0 l-11.143 -16 l0 16 l-7.4286 0 l0 -28.571 l6.5714 0 l11.143 15.886 l0 -15.886 z M123.71385714285714 11.428999999999998 l0 3.4286 l-6.6857 10.857 l6.6857 10.857 l0 3.4286 l-6.8571 0 l-6.5143 -11.143 l-4.9143 0 l0 11.143 l-7.4286 0 l0 -28.571 l7.4286 0 l0 11.143 l4.9143 0 l6.5143 -11.143 l6.8571 0 z M150.28542857142855 11.428999999999998 l4.2857 4.2857 l0 20 l-4.2857 4.2857 l-16.571 0 l-4.2857 -4.2857 l0 -20 l4.2857 -4.2857 l16.571 0 z M147.14242857142858 33.7143 l0 -16 l-10.286 0 l0 16 l10.286 0 z"/></g><g id="SvgjsG4134" featureKey="sloganFeature-0" transform="matrix(1.2669598405860774,0,0,1.2669598405860774,94.19078077734103,249.76084552595623)" fill="#ffffff"><path d="M11.857 5.714 l2.1429 2.1429 l0 10 l-2.1429 2.1429 l-10.429 0 l0 -14.286 l10.429 0 z M10.286 16.8571 l0 -8 l-5.1429 0 l0 8 l5.1429 0 z M17.714285714285715 20 l0 -2.8571 l1.1429 0 l0 -8.5714 l-1.1429 0 l0 -2.8571 l6 0 l0 2.8571 l-1.1429 0 l0 8.5714 l1.1429 0 l0 2.8571 l-6 0 z M36.429 8.857 l-5.2857 0 l0 8 l5.4286 0 l0 -2.4286 l-3.2857 0 l0 -3.1429 l7 0 l0 6.5714 l-2.1429 2.1429 l-8.5714 0 l-2.1429 -2.1429 l0 -10 l2.1429 -2.1429 l8.5714 0 l2.1429 2.1429 l0 2.1429 l-2.7143 0 z M44 20 l0 -2.8571 l1.1429 0 l0 -8.5714 l-1.1429 0 l0 -2.8571 l6 0 l0 2.8571 l-1.1429 0 l0 8.5714 l1.1429 0 l0 2.8571 l-6 0 z M52.714284285714285 8.857 l0 -3.1429 l12.143 0 l0 3.1429 l-4.2286 0 l0 11.143 l-3.7143 0 l0 -11.143 l-4.2 0 z M68.00002857142857 20 l0 -12.143 l2.1429 -2.1429 l8.2857 0 l2.1429 2.1429 l0 12.143 l-3.7143 0 l0 -4 l-5.1429 0 l0 4 l-3.7143 0 z M71.71432857142857 12.857099999999999 l5.1429 0 l0 -4 l-5.1429 0 l0 4 z M84.71431428571428 17.8571 l0 -12.143 l3.7143 0 l0 11.143 l7.7143 0 l0 3.1429 l-9.2857 0 z"/></g>
			</g>
		</svg>