
        <svg xmlns="http://www.w3.org/2000/svg" xmlns:xlink="http://www.w3.org/1999/xlink" version="1.1" width="2815.2188951920375" height="3169.336474898769" viewBox="0 0 2815.2188951920375 3169.336474898769">
			
			<g transform="scale(8.46682374493846) translate(10, 10)">
				<defs id="SvgjsDefs4130"/><g id="SvgjsG4131" featureKey="rootContainer" transform="matrix(6.3004014813942035,0,0,6.3004014813942035,0.0000463792746660998,0.02629461114787117)" fill="#000"><path xmlns="http://www.w3.org/2000/svg" d="M23.11 55.78L1.69 43.41A3.39 3.39 0 0 1 0 40.48V15.75a3.39 3.39 0 0 1 1.69-2.94L23.11.45a3.39 3.39 0 0 1 3.39 0l21.41 12.37a3.39 3.39 0 0 1 1.69 2.94v24.72a3.39 3.39 0 0 1-1.69 2.94L26.5 55.78a3.39 3.39 0 0 1-3.39 0z"/></g><g id="SvgjsG4132" featureKey="symbolFeature-0" transform="matrix(1.1704833696684027,0,0,1.1704833696684027,96.89058648296587,76.12468293364756)" fill="#ffffff"><path xmlns="http://www.w3.org/2000/svg" d="M29.5,25.5c2.5,0,4.6-2.1,4.6-4.6s-2.1-4.6-4.6-4.6c-2.5,0-4.6,2.1-4.6,4.6S27,25.5,29.5,25.5z M27,58  c0,0.7,0.6,1.3,1.3,1.3c0.7,0,1.3-0.6,1.3-1.3s-0.6-1.3-1.3-1.3C27.6,56.7,27,57.3,27,58z M36.2,31.3c1.1,0,1.9-0.9,1.9-1.9  c0-1.1-0.9-1.9-1.9-1.9c-1.1,0-1.9,0.9-1.9,1.9C34.3,30.4,35.1,31.3,36.2,31.3z M21.1,48.6c2.5,0,4.6-2.1,4.6-4.6  c0-2.5-2.1-4.6-4.6-4.6s-4.6,2.1-4.6,4.6C16.6,46.5,18.6,48.6,21.1,48.6z M14.5,37.8c1.1,0,1.9-0.9,1.9-1.9c0-1.1-0.9-1.9-1.9-1.9  c-1.1,0-1.9,0.9-1.9,1.9C12.6,37,13.4,37.8,14.5,37.8z M13.8,42c0-0.7-0.6-1.3-1.3-1.3c-0.7,0-1.3,0.6-1.3,1.3s0.6,1.3,1.3,1.3  C13.2,43.3,13.8,42.7,13.8,42z M19.9,31.2c1.8,0,3.2-1.4,3.2-3.2s-1.4-3.2-3.2-3.2c-1.8,0-3.2,1.4-3.2,3.2S18.1,31.2,19.9,31.2z   M58.8,13.6c0.7,0,1.3-0.6,1.3-1.3c0-0.7-0.6-1.3-1.3-1.3c-0.7,0-1.3,0.6-1.3,1.3C57.5,13,58.1,13.6,58.8,13.6z M23.8,57.5  c0-3.1-2.5-5.6-5.6-5.6c-3.1,0-5.6,2.5-5.6,5.6s2.5,5.6,5.6,5.6C21.3,63.1,23.8,60.6,23.8,57.5z M79.9,33.9c2.5,0,4.6-2.1,4.6-4.6  s-2.1-4.6-4.6-4.6s-4.6,2.1-4.6,4.6S77.3,33.9,79.9,33.9z M69.6,65.5c0,1.8,1.4,3.2,3.2,3.2c1.8,0,3.2-1.4,3.2-3.2s-1.4-3.2-3.2-3.2  C71,62.3,69.6,63.7,69.6,65.5z M72.8,22.9c1.8,0,3.2-1.4,3.2-3.2c0-1.8-1.4-3.2-3.2-3.2c-1.8,0-3.2,1.4-3.2,3.2  C69.6,21.5,71,22.9,72.8,22.9z M65.7,31.2c1.8,0,3.2-1.4,3.2-3.2s-1.4-3.2-3.2-3.2c-1.8,0-3.2,1.4-3.2,3.2S63.9,31.2,65.7,31.2z   M77.2,42.5c0,3.1,2.5,5.6,5.6,5.6c3.1,0,5.6-2.5,5.6-5.6s-2.5-5.6-5.6-5.6C79.7,36.9,77.2,39.4,77.2,42.5z M74,42  c0-0.7-0.6-1.3-1.3-1.3c-0.7,0-1.3,0.6-1.3,1.3s0.6,1.3,1.3,1.3C73.4,43.3,74,42.7,74,42z M64.8,16.1c1.1,0,1.9-0.9,1.9-1.9  s-0.9-1.9-1.9-1.9c-1.1,0-1.9,0.9-1.9,1.9S63.8,16.1,64.8,16.1z M70.8,37.8c1.1,0,1.9-0.9,1.9-1.9c0-1.1-0.9-1.9-1.9-1.9  s-1.9,0.9-1.9,1.9C68.9,37,69.8,37.8,70.8,37.8z M31.4,34.5c0-1.8-1.4-3.2-3.2-3.2c-1.8,0-3.2,1.4-3.2,3.2s1.4,3.2,3.2,3.2  C30,37.7,31.4,36.3,31.4,34.5z M64.8,68.7c-1.1,0-1.9,0.9-1.9,1.9c0,1.1,0.9,1.9,1.9,1.9c1.1,0,1.9-0.9,1.9-1.9  C66.7,69.6,65.9,68.7,64.8,68.7z M58.3,76.4c-3.1,0-5.6,2.5-5.6,5.6s2.5,5.6,5.6,5.6c3.1,0,5.6-2.5,5.6-5.6S61.4,76.4,58.3,76.4z   M71.5,74.5c-2.5,0-4.6,2.1-4.6,4.6s2.1,4.6,4.6,4.6c2.5,0,4.6-2.1,4.6-4.6S74,74.5,71.5,74.5z M57.5,72.5c0,0.7,0.6,1.3,1.3,1.3  c0.7,0,1.3-0.6,1.3-1.3c0-0.7-0.6-1.3-1.3-1.3C58.1,71.3,57.5,71.8,57.5,72.5z M88.5,56.7c-0.7,0-1.3,0.6-1.3,1.3s0.6,1.3,1.3,1.3  c0.7,0,1.3-0.6,1.3-1.3S89.1,56.7,88.5,56.7z M86.5,62.2c-1.1,0-1.9,0.9-1.9,1.9c0,1.1,0.9,1.9,1.9,1.9c1.1,0,1.9-0.9,1.9-1.9  C88.4,63,87.6,62.2,86.5,62.2z M56.2,25.5c2.5,0,4.6-2.1,4.6-4.6s-2.1-4.6-4.6-4.6s-4.6,2.1-4.6,4.6S53.7,25.5,56.2,25.5z   M79.9,51.4c-2.5,0-4.6,2.1-4.6,4.6c0,2.5,2.1,4.6,4.6,4.6s4.6-2.1,4.6-4.6C84.4,53.5,82.4,51.4,79.9,51.4z M21.1,66.1  c-2.5,0-4.6,2.1-4.6,4.6s2.1,4.6,4.6,4.6s4.6-2.1,4.6-4.6S23.7,66.1,21.1,66.1z M81.1,68.8c-1.8,0-3.2,1.4-3.2,3.2s1.4,3.2,3.2,3.2  c1.8,0,3.2-1.4,3.2-3.2S82.9,68.8,81.1,68.8z M30.2,62.2c-1.1,0-1.9,0.9-1.9,1.9c0,1.1,0.9,1.9,1.9,1.9s1.9-0.9,1.9-1.9  C32.1,63,31.2,62.2,30.2,62.2z M35.3,68.8c-1.8,0-3.2,1.4-3.2,3.2s1.4,3.2,3.2,3.2c1.8,0,3.2-1.4,3.2-3.2S37.1,68.8,35.3,68.8z   M36.2,83.9c-1.1,0-1.9,0.9-1.9,1.9s0.9,1.9,1.9,1.9c1.1,0,1.9-0.9,1.9-1.9S37.2,83.9,36.2,83.9z M28.2,77.1c-1.8,0-3.2,1.4-3.2,3.2  c0,1.8,1.4,3.2,3.2,3.2c1.8,0,3.2-1.4,3.2-3.2C31.4,78.5,30,77.1,28.2,77.1z M41,27.5c0,0.7,0.6,1.3,1.3,1.3c0.7,0,1.3-0.6,1.3-1.3  c0-0.7-0.6-1.3-1.3-1.3C41.5,26.2,41,26.8,41,27.5z M48.3,17.9c0-3.1-2.5-5.6-5.6-5.6c-3.1,0-5.6,2.5-5.6,5.6s2.5,5.6,5.6,5.6  C45.8,23.6,48.3,21.1,48.3,17.9z M42.2,86.4c-0.7,0-1.3,0.6-1.3,1.3c0,0.7,0.6,1.3,1.3,1.3c0.7,0,1.3-0.6,1.3-1.3  C43.5,87,42.9,86.4,42.2,86.4z M44.8,74.5c-2.5,0-4.6,2.1-4.6,4.6s2.1,4.6,4.6,4.6s4.6-2.1,4.6-4.6S47.3,74.5,44.8,74.5z"/><animateTransform attributeType="xml" attributeName="transform" type="rotate" from="0 50 50" to="360 50 50" dur="1.5s" additive="sum" repeatCount="indefinite" /></g><g id="SvgjsG4133" featureKey="nameFeature-0" transform="matrix(1.3182644273175383,0,0,1.3182644273175383,52.23437746724505,184.9344775148173)" fill="#ffffff"><path d="M2.8571 40 l0 -28.571 l20.857 0 l4.2857 4.2857 l0 12 l-4.2857 4.2857 l-13.429 0 l0 8 l-7.4286 0 z M10.286 25.714 l10.286 0 l0 -8 l-10.286 0 l0 8 z M34.57138571428572 40 l0 -24.286 l4.2857 -4.2857 l16.571 0 l4.2857 4.2857 l0 24.286 l-7.4286 0 l0 -8 l-10.286 0 l0 8 l-7.4286 0 z M42.00028571428572 25.714 l10.286 0 l0 -8 l-10.286 0 l0 8 z M83.99957142857143 11.428999999999998 l7.4286 0 l0 28.571 l-6.5714 0 l-11.143 -16 l0 16 l-7.4286 0 l0 -28.571 l6.5714 0 l11.143 15.886 l0 -15.886 z M123.71385714285714 11.428999999999998 l0 3.4286 l-6.6857 10.857 l6.6857 10.857 l0 3.4286 l-6.8571 0 l-6.5143 -11.143 l-4.9143 0 l0 11.143 l-7.4286 0 l0 -28.571 l7.4286 0 l0 11.143 l4.9143 0 l6.5143 -11.143 l6.8571 0 z M150.28542857142855 11.428999999999998 l4.2857 4.2857 l0 20 l-4.2857 4.2857 l-16.571 0 l-4.2857 -4.2857 l0 -20 l4.2857 -4.2857 l16.571 0 z M147.14242857142858 33.7143 l0 -16 l-10.286 0 l0 16 l10.286 0 z"/></g><g id="SvgjsG4134" featureKey="sloganFeature-0" transform="matrix(1.2669598405860774,0,0,1.2669598405860774,94.19078077734103,249.76084552595623)" fill="#ffffff"><path d="M11.857 5.714 l2.1429 2.1429 l0 10 l-2.1429 2.1429 l-10.429 0 l0 -14.286 l10.429 0 z M10.286 16.8571 l0 -8 l-5.1429 0 l0 8 l5.1429 0 z M17.714285714285715 20 l0 -2.8571 l1.1429 0 l0 -8.5714 l-1.1429 0 l0 -2.8571 l6 0 l0 2.8571 l-1.1429 0 l0 8.5714 l1.1429 0 l0 2.8571 l-6 0 z M36.429 8.857 l-5.2857 0 l0 8 l5.4286 0 l0 -2.4286 l-3.2857 0 l0 -3.1429 l7 0 l0 6.5714 l-2.1429 2.1429 l-8.5714 0 l-2.1429 -2.1429 l0 -10 l2.1429 -2.1429 l8.5714 0 l2.1429 2.1429 l0 2.1429 l-2.7143 0 z M44 20 l0 -2.8571 l1.1429 0 l0 -8.5714 l-1.1429 0 l0 -2.8571 l6 0 l0 2.8571 l-1.1429 0 l0 8.5714 l1.1429 0 l0 2.8571 l-6 0 z M52.714284285714285 8.857 l0 -3.1429 l12.143 0 l0 3.1429 l-4.2286 0 l0 11.143 l-3.7143 0 l0 -11.143 l-4.2 0 z M68.00002857142857 20 l0 -12.143 l2.1429 -2.1429 l8.2857 0 l2.1429 2.1429 l0 12.143 l-3.7143 0 l0 -4 l-5.1429 0 l0 4 l-3.7143 0 z M71.71432857142857 12.857099999999999 l5.1429 0 l0 -4 l-5.1429 0 l0 4 z M84.71431428571428 17.8571 l0 -12.143 l3.7143 0 l0 11.143 l7.7143 0 l0 3.1429 l-9.2857 0 z"/></g>
			</g>
		</svg>
	