<svg xmlns="http://www.w3.org/2000/svg" fill="none" viewBox="0 0 396 62" height="62" width="396">
<g clip-path="url(#clip0_1901_1309)">
<path fill="black" d="M156.251 1.46433C158.478 4.39298 158.992 8.09686 158.992 14.3787V48.9134H158.564L128.507 1.11978H116.093V1.29205L118.063 4.47911V47.6213C118.063 53.9093 117.55 57.6132 115.408 60.6218V60.9664H127.393V60.6218C125.252 57.607 124.652 53.9032 124.652 47.6213V11.1116H125.081L156.594 60.9725H165.502V14.3787C165.502 8.09071 166.101 4.39298 168.242 1.46433V1.11978H156.258V1.46433H156.251Z"></path>
<path fill="black" d="M198.691 1.11978H176.942V1.46433C178.912 4.47911 179.683 7.83845 179.683 14.471V47.2829C179.683 53.657 179.426 57.6132 176.942 60.628V60.9725H198.691C218.042 60.9725 230.712 48.9195 230.712 31.0031C230.712 13.0866 218.042 1.11978 198.691 1.11978ZM196.807 55.2014H188.071V6.89094H196.807C211.618 6.89094 221.468 14.8155 221.468 31.0031C221.468 47.1906 211.618 55.2014 196.807 55.2014Z"></path>
<path fill="black" d="M383.758 28.9358L375.279 25.0597C369.711 22.5617 367.741 19.5469 367.741 15.763C367.741 9.56119 372.88 6.11572 379.647 6.11572C385.214 6.11572 390.518 8.61369 393.944 14.0403H394.373V4.13458C390.947 1.89502 385.551 0.0861511 379.561 0.0861511C367.833 0.0861511 359.525 7.75232 359.525 17.3073C359.525 23.9399 363.208 29.4526 371.345 33.1504L379.653 36.8542C385.135 39.3522 387.618 41.8502 387.618 46.0647C387.618 52.4388 381.966 55.8843 375.542 55.8843C369.118 55.8843 363.128 52.6973 358.503 45.9786H358.075V56.2289C362.872 59.9327 369.295 62 375.627 62C387.019 62 396.006 54.8507 396.006 44.5204C396.006 37.1126 391.638 32.5474 383.764 28.9358H383.758Z"></path>
<path fill="black" d="M348.996 -1.19261e-05C345.741 -1.19261e-05 343.001 2.49795 343.001 5.94342C343.001 9.38889 345.827 11.8007 349.253 11.8007C349.51 11.8007 349.767 11.8007 349.938 11.7146L342.744 24.6289H347.369L352.936 14.2925C354.478 11.3639 355.334 9.29661 355.334 6.79864C355.334 2.92249 352.679 -0.00616455 348.996 -0.00616455V-1.19261e-05Z"></path>
<path fill="black" d="M279.068 16.7044C279.068 7.40776 271.36 1.11978 258.261 1.11978H237.454V1.46433C239.681 4.39298 240.195 8.18299 240.195 14.2926V47.5352C240.195 54.0816 239.596 57.6132 237.454 60.6218V60.9664H251.238V60.6218C249.097 57.607 248.497 54.0754 248.497 47.5352V32.7258H254.664L277.184 60.9725H288.062V60.8002L264.171 31.8645C273.593 30.1417 279.068 24.2844 279.068 16.7105V16.7044ZM248.497 26.8685V6.89094H256.805C265.542 6.89094 270.167 10.2503 270.167 16.7967C270.167 22.9985 265.627 26.8747 256.726 26.8747H248.503L248.497 26.8685Z"></path>
<path fill="black" d="M326.219 1.46433C326.647 5.08207 325.191 8.69982 321.68 14.3787L312.344 29.5326H312.001L302.922 14.2926C299.924 9.21048 298.126 5.24819 298.897 1.37819V1.11978H284.171V1.46433C287.511 4.73753 290.081 8.78595 293.25 14.1264L306.776 36.602V47.6213C306.776 53.9954 306.177 57.527 304.036 60.6218V60.9664H317.905V60.6218C315.764 57.5209 315.164 53.9893 315.164 47.6213V36.3436L328.776 14.3848C332.031 9.30277 334.772 4.99594 338.706 1.47048V1.12593H326.207V1.47048L326.219 1.46433Z"></path>
<path fill="black" d="M40.8432 1.46433C42.9844 4.39298 43.584 8.01072 43.584 14.3787V27.6376H11.1285V14.3787C11.1285 8.00457 11.728 4.39298 13.8693 1.46433V1.11978H0V1.46433C2.22692 4.39298 2.74082 8.01072 2.74082 14.3787V47.7013C2.74082 53.9893 2.22692 57.607 0 60.6157V60.9602H13.8693V60.6157C11.728 57.6009 11.1285 53.9831 11.1285 47.7013V33.581H43.584V47.7013C43.584 53.9893 42.9844 57.607 40.8432 60.6157V60.9602H54.7125V60.6157C52.4855 57.6009 51.9716 53.9831 51.9716 47.7013V14.3787C51.9716 8.00457 52.4855 4.39298 54.7125 1.46433V1.11978H40.8432V1.46433Z"></path>
<path fill="black" d="M93.6897 55.0291H75.5378V33.5872H88.5506C95.317 33.5872 98.4004 34.5347 100.456 36.7742H100.884V24.549H100.456C98.4004 26.7024 95.317 27.736 88.5506 27.736H75.5378V7.06322H92.4905C99.9422 7.06322 103.362 8.09686 105.589 11.1978H106.017V1.11978H64.4032V1.46433C66.6301 4.39298 67.1441 8.09686 67.1441 14.3787V47.6152C67.1441 54.0754 66.5445 57.607 64.4032 60.6157V60.9602H107.131V49.7686H106.702C104.39 53.9032 100.364 55.0229 93.6835 55.0229L93.6897 55.0291Z"></path>
</g>
<defs>
<clipPath id="clip0_1901_1309">
<rect fill="white" height="62" width="396"></rect>
</clipPath>
</defs>
</svg>
